<?xml version="1.0" standalone="no"?>
<!DOCTYPE svg PUBLIC "-//W3C//DTD SVG 20010904//EN"
 "http://www.w3.org/TR/2001/REC-SVG-20010904/DTD/svg10.dtd">
<svg version="1.0" xmlns="http://www.w3.org/2000/svg"
 width="512.000000pt" height="512.000000pt" viewBox="0 0 512.000000 512.000000"
 preserveAspectRatio="xMidYMid meet">
<metadata>
Created by potrace 1.11, written by Peter Selinger 2001-2013
</metadata>
<g transform="translate(0.000000,512.000000) scale(0.100000,-0.100000)"
fill="#000000" stroke="none">
<path d="M2360 5113 c-78 -10 -268 -57 -342 -84 -233 -86 -409 -199 -589 -378
-230 -231 -370 -486 -441 -807 -19 -85 -22 -131 -22 -319 -1 -247 12 -330 81
-528 81 -235 209 -433 404 -627 69 -69 129 -134 133 -145 5 -11 11 -63 15
-116 6 -74 12 -102 29 -126 66 -92 228 -80 276 21 24 50 22 215 -4 297 -29 95
-68 149 -214 293 -139 138 -199 218 -272 366 -147 297 -169 673 -58 982 154
428 509 736 957 829 142 30 352 30 494 0 513 -107 899 -493 1004 -1004 27
-132 29 -343 5 -471 -56 -293 -181 -517 -404 -726 -184 -171 -203 -217 -213
-505 -8 -254 -16 -284 -98 -366 -95 -95 -79 -92 -646 -99 -479 -5 -491 -6
-546 -28 -194 -78 -309 -247 -309 -451 0 -42 6 -99 14 -127 35 -133 135 -251
263 -312 l78 -37 402 -3 c360 -3 407 -1 438 14 103 48 115 210 21 277 -30 22
-38 22 -406 27 -352 5 -377 6 -408 25 -101 61 -101 209 0 270 31 19 56 20 523
25 471 5 492 6 555 27 192 66 349 223 412 413 18 55 22 99 28 275 3 116 11
221 17 236 6 14 47 58 91 97 255 230 426 527 504 874 20 90 23 130 23 318 0
237 -13 323 -77 515 -154 460 -540 849 -993 1000 -183 62 -275 77 -490 80
-110 2 -216 1 -235 -2z"/>
<path d="M2370 4465 c-186 -38 -355 -129 -490 -265 -176 -176 -280 -417 -280
-648 0 -86 18 -132 63 -164 41 -30 123 -36 171 -13 59 28 76 62 92 183 17 133
27 169 72 257 49 95 172 218 267 267 88 45 124 55 257 72 76 10 116 20 136 35
91 65 78 227 -22 275 -42 20 -171 20 -266 1z"/>
<path d="M3282 944 c-99 -51 -111 -211 -19 -276 41 -30 123 -36 171 -13 103
49 117 211 23 277 -41 29 -129 35 -175 12z"/>
<path d="M2322 303 c-55 -27 -77 -68 -77 -143 0 -76 23 -117 79 -144 50 -24
422 -24 472 0 56 27 79 68 79 144 0 76 -23 117 -79 144 -50 24 -425 23 -474
-1z"/>
</g>
</svg>
